<svg xmlns="http://www.w3.org/2000/svg" viewBox="0 0 240 180">
  <rect width="240" height="180" rx="28" fill="#f0f9ff"/>
  <!-- 鸭身 -->
  <ellipse cx="110" cy="115" rx="42" ry="28" fill="#facc15" stroke="#ca8a04" stroke-width="3.5"/>
  <path d="M145 110l16-12-4 16Z" fill="#facc15" stroke="#ca8a04" stroke-width="3"/>
  <!-- 鸭头 -->
  <circle cx="100" cy="78" r="32" fill="#fde047" stroke="#ca8a04" stroke-width="3.5"/>
  <!-- 大眼睛 -->
  <circle cx="95" cy="72" r="5" fill="#18181b"/><circle cx="97" cy="70" r="2" fill="#fff"/>
  <!-- 标志性扁平大鸭嘴 -->
  <path d="M120 76c18-2 30 4 28 12-2 8-16 10-28 6Z" fill="#ea580c" stroke="#9a3412" stroke-width="3"/>
  <!-- 鸭翅膀 -->
  <path d="M96 112c14-12 28-8 32 4-10 6-22 4-32-4Z" fill="#eab308" stroke="#ca8a04" stroke-width="2.5"/>
  <!-- 水波纹 -->
  <path d="M55 146c18 4 34-4 50 0 16 4 34-4 50 0 16 4 28-2 40 0" stroke="#38bdf8" stroke-width="3.5" fill="none" stroke-linecap="round"/>
</svg>
